<?xml version="1.0" standalone="no"?>
<!DOCTYPE svg PUBLIC "-//W3C//DTD SVG 20010904//EN"
 "http://www.w3.org/TR/2001/REC-SVG-20010904/DTD/svg10.dtd">
<svg version="1.0" xmlns="http://www.w3.org/2000/svg"
 width="512.000000pt" height="512.000000pt" viewBox="0 0 512.000000 512.000000"
 preserveAspectRatio="xMidYMid meet">
<metadata>
Created by potrace 1.14, written by Peter Selinger 2001-2017
</metadata>
<g transform="translate(0.000000,512.000000) scale(0.100000,-0.100000)"
fill="#000000" stroke="none">
<path d="M2225 4755 c-38 -7 -117 -25 -175 -40 -58 -15 -118 -30 -135 -33 -83
-13 -414 -167 -556 -257 -266 -171 -533 -442 -691 -703 -137 -224 -246 -510
-297 -775 -29 -149 -31 -173 -31 -390 0 -192 4 -248 20 -327 11 -52 25 -123
30 -157 6 -35 33 -129 60 -210 158 -463 399 -796 799 -1102 187 -142 503 -290
761 -355 257 -65 295 -69 595 -63 279 5 297 7 498 61 31 9 81 22 110 29 75 20
265 100 387 164 94 49 176 101 308 195 86 60 344 322 423 428 202 271 354 620
416 955 25 136 28 171 28 380 0 208 -3 244 -28 380 -41 225 -149 526 -251 700
-16 28 -40 70 -54 95 -14 25 -40 65 -58 90 -18 25 -48 65 -66 90 -52 71 -345
360 -428 422 -106 78 -205 140 -308 192 -113 57 -325 145 -365 153 -18 3 -79
18 -137 34 -183 49 -271 59 -540 58 -152 0 -272 -6 -315 -14z m175 -131 c0 -3
-15 -36 -34 -73 -51 -99 -138 -301 -189 -436 -55 -144 -143 -417 -151 -464 -4
-19 -11 -52 -17 -73 l-10 -38 -389 0 c-215 0 -390 3 -390 7 0 25 165 289 259
413 83 109 394 420 491 491 102 74 191 134 215 144 54 22 215 44 215 29z m445
-8 c87 -19 118 -35 235 -119 163 -117 466 -411 564 -547 107 -148 246 -373
246 -398 0 -9 -102 -12 -388 -12 l-389 0 -12 58 c-18 85 -109 371 -158 498
-24 61 -43 116 -43 121 0 6 -39 94 -86 194 -108 232 -105 219 -63 219 19 -1
61 -7 94 -14z m-217 -124 c44 -88 151 -334 181 -422 7 -19 30 -82 52 -140 21
-58 39 -111 39 -119 0 -8 16 -63 35 -122 54 -168 104 -149 -380 -149 -364 0
-415 2 -415 15 0 9 17 68 38 133 21 64 44 140 51 167 32 129 266 684 313 743
16 19 31 1 86 -106z m850 -72 c105 -53 163 -88 327 -200 51 -35 355 -336 411
-406 35 -44 108 -156 149 -226 l27 -48 -171 0 c-154 0 -172 2 -178 18 -16 41
-127 239 -180 319 -103 157 -184 255 -357 431 -93 94 -164 172 -157 172 7 0
65 -27 129 -60z m-1863 -103 c-83 -84 -163 -169 -180 -190 -16 -21 -45 -57
-63 -80 -71 -92 -196 -288 -250 -394 l-57 -113 -167 0 c-93 0 -168 3 -168 6 0
9 60 113 85 149 192 267 376 449 620 612 77 51 291 163 313 163 9 0 -48 -66
-133 -153z m2876 -982 c16 -35 34 -86 40 -112 7 -26 20 -75 30 -108 10 -33 30
-109 43 -170 46 -210 42 -623 -7 -815 -55 -212 -81 -298 -108 -358 l-28 -63
-1901 3 c-1839 3 -1902 4 -1915 22 -24 32 -108 295 -141 441 -22 94 -30 457
-14 614 17 168 56 328 124 511 l32 85 80 6 c43 3 902 6 1907 7 l1828 2 30 -65z
m-591 -1765 c0 -35 -131 -249 -254 -415 -143 -194 -541 -556 -692 -630 -46
-24 -227 -55 -240 -43 -2 3 25 62 61 131 83 158 200 413 219 475 8 26 30 90
49 142 32 89 66 207 89 308 l10 42 379 0 c253 0 379 -3 379 -10z m-2776 -125
c61 -118 176 -297 258 -405 23 -30 118 -133 212 -227 93 -95 167 -176 163
-179 -6 -7 -235 112 -317 166 -186 120 -444 362 -566 530 -69 95 -144 215
-144 230 0 7 59 10 166 8 l165 -3 63 -120z m869 50 c10 -38 25 -95 32 -125 8
-31 33 -104 55 -163 22 -59 40 -112 40 -118 0 -18 125 -289 206 -449 41 -80
74 -149 74 -153 0 -9 -98 -1 -175 14 -28 6 -78 28 -115 52 -194 124 -498 410
-637 597 -113 152 -253 379 -253 410 0 7 118 9 378 8 l377 -3 18 -70z m1007
64 c0 -36 -125 -414 -169 -513 -17 -37 -31 -72 -31 -77 0 -10 -129 -272 -179
-364 -18 -33 -41 -68 -51 -78 -17 -18 -18 -18 -38 15 -30 49 -164 306 -189
363 -53 124 -97 235 -129 329 -19 55 -46 133 -59 171 -29 85 -45 152 -37 160
3 3 203 5 444 5 322 0 438 -3 438 -11z m1380 -1 c0 -26 -101 -180 -191 -293
-31 -38 -121 -133 -200 -211 -107 -104 -175 -161 -265 -221 -125 -82 -361
-209 -371 -199 -4 3 75 88 173 188 237 241 356 402 476 643 22 44 45 86 50 93
14 17 328 18 328 0z"/>
<path d="M1272 2908 c-5 -24 -15 -65 -21 -93 -23 -98 -96 -355 -102 -355 -5 0
-56 157 -79 245 -70 263 -51 235 -165 235 -52 0 -95 -3 -95 -7 0 -5 14 -51 30
-103 28 -86 63 -198 167 -530 20 -63 38 -121 39 -128 3 -10 29 -12 106 -10
102 3 103 3 106 28 1 14 22 97 46 185 24 88 49 183 55 210 7 28 16 54 20 58 8
8 71 -192 71 -223 0 -8 15 -67 34 -130 l33 -115 104 0 104 0 17 65 c9 36 35
121 58 190 23 69 51 154 62 190 11 36 30 94 43 130 12 36 28 85 34 110 7 25
14 53 18 63 5 16 -2 18 -98 15 l-104 -3 -11 -55 c-6 -30 -31 -120 -56 -200
-25 -80 -49 -160 -54 -178 -5 -19 -13 -34 -19 -35 -10 -2 -44 113 -69 233 -7
36 -24 107 -37 157 l-24 93 -101 0 -101 0 -11 -42z"/>
<path d="M2436 2873 c-10 -43 -36 -143 -58 -223 -22 -80 -43 -155 -45 -167 -6
-27 -23 -31 -23 -5 0 9 -18 69 -40 134 -21 64 -42 133 -45 155 -4 21 -16 68
-28 106 l-21 67 -99 0 c-90 0 -99 -2 -92 -17 3 -10 18 -58 32 -108 13 -49 35
-119 48 -155 13 -36 33 -99 46 -140 12 -41 39 -127 60 -190 21 -63 40 -128 44
-143 l6 -28 101 3 101 3 17 70 c9 39 29 109 44 156 14 48 26 94 26 102 0 28
41 148 49 143 4 -3 18 -45 30 -93 12 -48 41 -152 64 -231 l41 -143 99 3 99 3
20 65 c11 36 32 101 48 145 15 44 39 118 53 165 14 47 36 119 50 160 30 91 67
214 67 223 0 4 -44 7 -98 7 l-99 0 -17 -62 c-10 -35 -33 -115 -52 -178 -19
-63 -42 -140 -51 -170 -9 -30 -19 -59 -23 -63 -7 -8 -64 191 -110 386 l-23 97
-102 0 -101 0 -18 -77z"/>
<path d="M3160 2928 c0 -20 77 -270 170 -553 27 -82 52 -165 55 -182 l7 -33
102 0 102 0 16 63 c9 34 26 103 39 152 40 159 69 255 79 255 10 0 24 -41 44
-130 7 -36 31 -125 52 -198 l39 -133 98 3 99 3 40 115 c22 63 43 134 48 156 5
23 29 98 54 167 25 69 46 132 46 140 0 12 36 122 55 170 7 16 0 18 -95 15
l-103 -3 -24 -69 c-12 -39 -23 -78 -23 -89 0 -24 -89 -295 -99 -301 -9 -6 -81
245 -107 369 -8 44 -18 83 -20 87 -3 5 -50 8 -104 8 l-99 0 -25 -82 c-14 -46
-32 -117 -41 -158 -31 -156 -85 -288 -85 -211 0 10 -11 51 -25 92 -36 103 -66
206 -75 259 -5 25 -13 57 -19 73 -10 27 -11 27 -106 27 -65 0 -95 -4 -95 -12z"/>
</g>
</svg>
